<mxfile host="app.diagrams.net" modified="2023-09-13T18:34:52.479Z" agent="Mozilla/5.0 (Windows NT 10.0; Win64; x64) AppleWebKit/537.36 (KHTML, like Gecko) Chrome/116.0.0.0 Safari/537.36 Edg/116.0.1938.76" etag="iBTIZPsEpcmhLWuGXINl" version="21.7.5" type="device">
  <diagram id="q_a-Vzfi3W0oyYXCMnJ4" name="PÃ¡gina-1">
    <mxGraphModel dx="545" dy="368" grid="1" gridSize="10" guides="1" tooltips="1" connect="1" arrows="1" fold="1" page="1" pageScale="1" pageWidth="827" pageHeight="1169" math="1" shadow="0">
      <root>
        <mxCell id="0" />
        <mxCell id="1" parent="0" />
        <mxCell id="wKHjVHF_zIsnPyPIIuAp-15" value="" style="group" parent="1" vertex="1" connectable="0">
          <mxGeometry x="60" y="300" width="120" height="80" as="geometry" />
        </mxCell>
        <mxCell id="wKHjVHF_zIsnPyPIIuAp-1" value="" style="verticalLabelPosition=middle;verticalAlign=middle;html=1;shape=trapezoid;perimeter=trapezoidPerimeter;whiteSpace=wrap;size=0.23;arcSize=10;flipV=1;labelPosition=center;align=center;direction=west;" parent="wKHjVHF_zIsnPyPIIuAp-15" vertex="1">
          <mxGeometry x="20" width="100" height="60" as="geometry" />
        </mxCell>
        <mxCell id="wKHjVHF_zIsnPyPIIuAp-3" value="" style="ellipse;whiteSpace=wrap;html=1;aspect=fixed;" parent="wKHjVHF_zIsnPyPIIuAp-15" vertex="1">
          <mxGeometry x="60" y="20" width="20" height="20" as="geometry" />
        </mxCell>
        <mxCell id="wKHjVHF_zIsnPyPIIuAp-4" value="" style="endArrow=none;html=1;rounded=0;entryX=1;entryY=0;entryDx=0;entryDy=0;" parent="wKHjVHF_zIsnPyPIIuAp-15" target="wKHjVHF_zIsnPyPIIuAp-1" edge="1">
          <mxGeometry width="50" height="50" relative="1" as="geometry">
            <mxPoint y="80" as="sourcePoint" />
            <mxPoint x="20" y="80" as="targetPoint" />
          </mxGeometry>
        </mxCell>
        <mxCell id="wKHjVHF_zIsnPyPIIuAp-10" value="" style="endArrow=none;html=1;rounded=0;entryX=1;entryY=0;entryDx=0;entryDy=0;" parent="wKHjVHF_zIsnPyPIIuAp-15" edge="1">
          <mxGeometry width="50" height="50" relative="1" as="geometry">
            <mxPoint x="20" y="80" as="sourcePoint" />
            <mxPoint x="40" y="60" as="targetPoint" />
          </mxGeometry>
        </mxCell>
        <mxCell id="wKHjVHF_zIsnPyPIIuAp-11" value="" style="endArrow=none;html=1;rounded=0;entryX=1;entryY=0;entryDx=0;entryDy=0;" parent="wKHjVHF_zIsnPyPIIuAp-15" edge="1">
          <mxGeometry width="50" height="50" relative="1" as="geometry">
            <mxPoint x="40" y="80" as="sourcePoint" />
            <mxPoint x="60" y="60" as="targetPoint" />
          </mxGeometry>
        </mxCell>
        <mxCell id="wKHjVHF_zIsnPyPIIuAp-12" value="" style="endArrow=none;html=1;rounded=0;entryX=1;entryY=0;entryDx=0;entryDy=0;" parent="wKHjVHF_zIsnPyPIIuAp-15" edge="1">
          <mxGeometry width="50" height="50" relative="1" as="geometry">
            <mxPoint x="60" y="80" as="sourcePoint" />
            <mxPoint x="80" y="60" as="targetPoint" />
          </mxGeometry>
        </mxCell>
        <mxCell id="wKHjVHF_zIsnPyPIIuAp-13" value="" style="endArrow=none;html=1;rounded=0;entryX=1;entryY=0;entryDx=0;entryDy=0;" parent="wKHjVHF_zIsnPyPIIuAp-15" edge="1">
          <mxGeometry width="50" height="50" relative="1" as="geometry">
            <mxPoint x="80" y="80" as="sourcePoint" />
            <mxPoint x="100" y="60" as="targetPoint" />
          </mxGeometry>
        </mxCell>
        <mxCell id="wKHjVHF_zIsnPyPIIuAp-14" value="" style="endArrow=none;html=1;rounded=0;entryX=1;entryY=0;entryDx=0;entryDy=0;" parent="wKHjVHF_zIsnPyPIIuAp-15" edge="1">
          <mxGeometry width="50" height="50" relative="1" as="geometry">
            <mxPoint x="100" y="80" as="sourcePoint" />
            <mxPoint x="120" y="60" as="targetPoint" />
          </mxGeometry>
        </mxCell>
        <mxCell id="wKHjVHF_zIsnPyPIIuAp-59" value="1" style="text;html=1;strokeColor=none;fillColor=none;align=center;verticalAlign=middle;whiteSpace=wrap;rounded=0;fontSize=17;" parent="wKHjVHF_zIsnPyPIIuAp-15" vertex="1">
          <mxGeometry x="20" y="30" width="60" height="30" as="geometry" />
        </mxCell>
        <mxCell id="wKHjVHF_zIsnPyPIIuAp-16" value="&lt;font style=&quot;font-size: 18px;&quot;&gt;2&lt;/font&gt;" style="endArrow=none;html=1;rounded=0;exitX=1;exitY=0;exitDx=0;exitDy=0;" parent="1" source="wKHjVHF_zIsnPyPIIuAp-3" target="wKHjVHF_zIsnPyPIIuAp-17" edge="1">
          <mxGeometry x="-0.0389" y="22" width="50" height="50" relative="1" as="geometry">
            <mxPoint x="180" y="260" as="sourcePoint" />
            <mxPoint x="210" y="150" as="targetPoint" />
            <mxPoint as="offset" />
          </mxGeometry>
        </mxCell>
        <mxCell id="wKHjVHF_zIsnPyPIIuAp-17" value="" style="ellipse;whiteSpace=wrap;html=1;aspect=fixed;" parent="1" vertex="1">
          <mxGeometry x="200" y="150" width="20" height="20" as="geometry" />
        </mxCell>
        <mxCell id="wKHjVHF_zIsnPyPIIuAp-21" value="" style="rounded=0;whiteSpace=wrap;html=1;" parent="1" vertex="1">
          <mxGeometry x="520" y="300" width="120" height="60" as="geometry" />
        </mxCell>
        <mxCell id="wKHjVHF_zIsnPyPIIuAp-22" value="" style="ellipse;whiteSpace=wrap;html=1;aspect=fixed;" parent="1" vertex="1">
          <mxGeometry x="570" y="320" width="20" height="20" as="geometry" />
        </mxCell>
        <mxCell id="wKHjVHF_zIsnPyPIIuAp-20" value="&lt;font style=&quot;font-size: 17px;&quot;&gt;3&lt;/font&gt;" style="endArrow=none;html=1;rounded=0;" parent="1" source="wKHjVHF_zIsnPyPIIuAp-17" target="wKHjVHF_zIsnPyPIIuAp-22" edge="1">
          <mxGeometry x="0.1319" y="28" width="50" height="50" relative="1" as="geometry">
            <mxPoint x="330" y="140" as="sourcePoint" />
            <mxPoint x="490" y="290" as="targetPoint" />
            <mxPoint as="offset" />
          </mxGeometry>
        </mxCell>
        <mxCell id="wKHjVHF_zIsnPyPIIuAp-23" value="" style="endArrow=none;html=1;rounded=0;" parent="1" edge="1">
          <mxGeometry width="50" height="50" relative="1" as="geometry">
            <mxPoint x="420" y="360" as="sourcePoint" />
            <mxPoint x="740" y="360" as="targetPoint" />
          </mxGeometry>
        </mxCell>
        <mxCell id="wKHjVHF_zIsnPyPIIuAp-25" value="" style="endArrow=none;html=1;rounded=0;" parent="1" edge="1">
          <mxGeometry width="50" height="50" relative="1" as="geometry">
            <mxPoint x="400" y="380" as="sourcePoint" />
            <mxPoint x="420" y="360" as="targetPoint" />
          </mxGeometry>
        </mxCell>
        <mxCell id="wKHjVHF_zIsnPyPIIuAp-26" value="" style="endArrow=none;html=1;rounded=0;" parent="1" edge="1">
          <mxGeometry width="50" height="50" relative="1" as="geometry">
            <mxPoint x="420" y="380" as="sourcePoint" />
            <mxPoint x="440" y="360" as="targetPoint" />
          </mxGeometry>
        </mxCell>
        <mxCell id="wKHjVHF_zIsnPyPIIuAp-27" value="" style="endArrow=none;html=1;rounded=0;" parent="1" edge="1">
          <mxGeometry width="50" height="50" relative="1" as="geometry">
            <mxPoint x="440" y="380" as="sourcePoint" />
            <mxPoint x="460" y="360" as="targetPoint" />
          </mxGeometry>
        </mxCell>
        <mxCell id="wKHjVHF_zIsnPyPIIuAp-28" value="" style="endArrow=none;html=1;rounded=0;" parent="1" edge="1">
          <mxGeometry width="50" height="50" relative="1" as="geometry">
            <mxPoint x="680" y="380" as="sourcePoint" />
            <mxPoint x="700" y="360" as="targetPoint" />
          </mxGeometry>
        </mxCell>
        <mxCell id="wKHjVHF_zIsnPyPIIuAp-29" value="" style="endArrow=none;html=1;rounded=0;" parent="1" edge="1">
          <mxGeometry width="50" height="50" relative="1" as="geometry">
            <mxPoint x="700" y="380" as="sourcePoint" />
            <mxPoint x="720" y="360" as="targetPoint" />
          </mxGeometry>
        </mxCell>
        <mxCell id="wKHjVHF_zIsnPyPIIuAp-30" value="" style="endArrow=none;html=1;rounded=0;" parent="1" edge="1">
          <mxGeometry width="50" height="50" relative="1" as="geometry">
            <mxPoint x="720" y="380" as="sourcePoint" />
            <mxPoint x="740" y="360" as="targetPoint" />
          </mxGeometry>
        </mxCell>
        <mxCell id="wKHjVHF_zIsnPyPIIuAp-31" value="4" style="endArrow=none;dashed=1;html=1;rounded=0;fontSize=17;" parent="1" source="wKHjVHF_zIsnPyPIIuAp-3" target="wKHjVHF_zIsnPyPIIuAp-22" edge="1">
          <mxGeometry x="1" y="41" width="50" height="50" relative="1" as="geometry">
            <mxPoint x="450" y="370" as="sourcePoint" />
            <mxPoint x="500" y="320" as="targetPoint" />
            <mxPoint x="40" y="31" as="offset" />
          </mxGeometry>
        </mxCell>
        <mxCell id="wKHjVHF_zIsnPyPIIuAp-32" value="" style="endArrow=classic;html=1;rounded=0;fontSize=17;fillColor=#f5f5f5;strokeColor=#666666;" parent="1" source="wKHjVHF_zIsnPyPIIuAp-3" edge="1">
          <mxGeometry width="50" height="50" relative="1" as="geometry">
            <mxPoint x="200" y="440" as="sourcePoint" />
            <mxPoint x="130" y="280" as="targetPoint" />
          </mxGeometry>
        </mxCell>
        <mxCell id="wKHjVHF_zIsnPyPIIuAp-33" value="" style="endArrow=classic;html=1;rounded=0;fontSize=17;fillColor=#f5f5f5;strokeColor=#666666;" parent="1" source="wKHjVHF_zIsnPyPIIuAp-3" edge="1">
          <mxGeometry width="50" height="50" relative="1" as="geometry">
            <mxPoint x="140" y="330" as="sourcePoint" />
            <mxPoint x="180" y="330" as="targetPoint" />
          </mxGeometry>
        </mxCell>
        <mxCell id="wKHjVHF_zIsnPyPIIuAp-43" value="&lt;font style=&quot;font-size: 18px;&quot;&gt;$$\overrightarrow{r_2}$$&lt;/font&gt;" style="endArrow=block;html=1;rounded=0;labelBackgroundColor=none;endFill=1;" parent="1" edge="1">
          <mxGeometry x="-0.0365" y="29" width="50" height="50" relative="1" as="geometry">
            <mxPoint x="130" y="650" as="sourcePoint" />
            <mxPoint x="210" y="480" as="targetPoint" />
            <mxPoint as="offset" />
          </mxGeometry>
        </mxCell>
        <mxCell id="wKHjVHF_zIsnPyPIIuAp-47" value="&lt;span style=&quot;font-size: 18px;&quot;&gt;$$\overrightarrow{r_3}$$&lt;/span&gt;" style="endArrow=none;html=1;rounded=0;labelBackgroundColor=none;startArrow=block;startFill=1;" parent="1" edge="1">
          <mxGeometry x="0.085" y="24" width="50" height="50" relative="1" as="geometry">
            <mxPoint x="210" y="480" as="sourcePoint" />
            <mxPoint x="580" y="650" as="targetPoint" />
            <mxPoint as="offset" />
          </mxGeometry>
        </mxCell>
        <mxCell id="wKHjVHF_zIsnPyPIIuAp-55" value="" style="endArrow=block;dashed=1;html=1;rounded=0;fontSize=17;labelBackgroundColor=none;endFill=1;" parent="1" edge="1">
          <mxGeometry x="-0.3953" y="-60" width="50" height="50" relative="1" as="geometry">
            <mxPoint x="139.99999999999181" y="650" as="sourcePoint" />
            <mxPoint x="580" y="650" as="targetPoint" />
            <mxPoint as="offset" />
          </mxGeometry>
        </mxCell>
        <mxCell id="wKHjVHF_zIsnPyPIIuAp-56" value="" style="endArrow=classic;html=1;rounded=0;fontSize=17;fillColor=#f5f5f5;strokeColor=#666666;" parent="1" edge="1">
          <mxGeometry width="50" height="50" relative="1" as="geometry">
            <mxPoint x="130" y="650" as="sourcePoint" />
            <mxPoint x="130" y="600.0000000000001" as="targetPoint" />
          </mxGeometry>
        </mxCell>
        <mxCell id="wKHjVHF_zIsnPyPIIuAp-57" value="" style="endArrow=classic;html=1;rounded=0;fontSize=17;fillColor=#f5f5f5;strokeColor=#666666;" parent="1" edge="1">
          <mxGeometry width="50" height="50" relative="1" as="geometry">
            <mxPoint x="130" y="650" as="sourcePoint" />
            <mxPoint x="180" y="650" as="targetPoint" />
          </mxGeometry>
        </mxCell>
        <mxCell id="wKHjVHF_zIsnPyPIIuAp-61" value="&lt;span style=&quot;font-size: 18px; background-color: rgb(255, 255, 255);&quot;&gt;$$\overrightarrow{r_4}$$&lt;/span&gt;" style="text;html=1;strokeColor=none;fillColor=none;align=center;verticalAlign=middle;whiteSpace=wrap;rounded=0;fontSize=17;" parent="1" vertex="1">
          <mxGeometry x="300" y="650" width="60" height="30" as="geometry" />
        </mxCell>
        <mxCell id="wKHjVHF_zIsnPyPIIuAp-67" value="" style="endArrow=block;html=1;rounded=0;labelBackgroundColor=none;fontSize=17;curved=1;endFill=1;" parent="1" edge="1">
          <mxGeometry width="50" height="50" relative="1" as="geometry">
            <mxPoint x="200" y="650" as="sourcePoint" />
            <mxPoint x="160" y="590" as="targetPoint" />
            <Array as="points">
              <mxPoint x="200" y="610" />
            </Array>
          </mxGeometry>
        </mxCell>
        <mxCell id="wKHjVHF_zIsnPyPIIuAp-68" value="" style="endArrow=block;html=1;rounded=0;labelBackgroundColor=none;fontSize=17;curved=1;endFill=1;" parent="1" edge="1">
          <mxGeometry width="50" height="50" relative="1" as="geometry">
            <mxPoint x="620" y="650" as="sourcePoint" />
            <mxPoint x="540" y="630" as="targetPoint" />
            <Array as="points">
              <mxPoint x="620" y="610" />
              <mxPoint x="560" y="590" />
            </Array>
          </mxGeometry>
        </mxCell>
        <mxCell id="wKHjVHF_zIsnPyPIIuAp-70" value="" style="endArrow=none;dashed=1;html=1;rounded=0;labelBackgroundColor=none;fontSize=17;curved=1;" parent="1" edge="1">
          <mxGeometry width="50" height="50" relative="1" as="geometry">
            <mxPoint x="580" y="650" as="sourcePoint" />
            <mxPoint x="650" y="650" as="targetPoint" />
          </mxGeometry>
        </mxCell>
        <mxCell id="wKHjVHF_zIsnPyPIIuAp-71" value="$$\theta_2$$" style="text;html=1;strokeColor=none;fillColor=none;align=center;verticalAlign=middle;whiteSpace=wrap;rounded=0;fontSize=17;" parent="1" vertex="1">
          <mxGeometry x="190" y="600" width="60" height="30" as="geometry" />
        </mxCell>
        <mxCell id="wKHjVHF_zIsnPyPIIuAp-72" value="$$\theta_3$$" style="text;html=1;strokeColor=none;fillColor=none;align=center;verticalAlign=middle;whiteSpace=wrap;rounded=0;fontSize=17;" parent="1" vertex="1">
          <mxGeometry x="550" y="610" width="60" height="30" as="geometry" />
        </mxCell>
        <mxCell id="wKHjVHF_zIsnPyPIIuAp-73" value="$$\theta_4$$" style="text;html=1;strokeColor=none;fillColor=none;align=center;verticalAlign=middle;whiteSpace=wrap;rounded=0;fontSize=17;" parent="1" vertex="1">
          <mxGeometry x="240" y="660" width="60" height="30" as="geometry" />
        </mxCell>
        <mxCell id="wKHjVHF_zIsnPyPIIuAp-74" value="" style="endArrow=classic;html=1;rounded=0;labelBackgroundColor=none;fontSize=17;curved=1;" parent="1" edge="1">
          <mxGeometry width="50" height="50" relative="1" as="geometry">
            <mxPoint x="260" y="630" as="sourcePoint" />
            <mxPoint x="260" y="650" as="targetPoint" />
          </mxGeometry>
        </mxCell>
        <mxCell id="wKHjVHF_zIsnPyPIIuAp-76" value="" style="endArrow=classic;html=1;rounded=0;labelBackgroundColor=none;fontSize=17;curved=1;" parent="1" edge="1">
          <mxGeometry width="50" height="50" relative="1" as="geometry">
            <mxPoint x="260" y="670" as="sourcePoint" />
            <mxPoint x="260" y="650" as="targetPoint" />
          </mxGeometry>
        </mxCell>
        <mxCell id="wKHjVHF_zIsnPyPIIuAp-87" style="edgeStyle=orthogonalEdgeStyle;rounded=0;orthogonalLoop=1;jettySize=auto;html=1;exitX=1;exitY=0.5;exitDx=0;exitDy=0;entryX=0;entryY=0.5;entryDx=0;entryDy=0;labelBackgroundColor=none;fontSize=17;startArrow=none;startFill=0;endArrow=block;endFill=1;" parent="1" source="wKHjVHF_zIsnPyPIIuAp-77" target="wKHjVHF_zIsnPyPIIuAp-85" edge="1">
          <mxGeometry relative="1" as="geometry" />
        </mxCell>
        <mxCell id="wKHjVHF_zIsnPyPIIuAp-77" value="&lt;i&gt;manivela_corredera (x0)&lt;/i&gt;" style="rounded=0;whiteSpace=wrap;html=1;fontSize=17;" parent="1" vertex="1">
          <mxGeometry x="340" y="790" width="180" height="80" as="geometry" />
        </mxCell>
        <mxCell id="wKHjVHF_zIsnPyPIIuAp-78" value="" style="endArrow=classic;html=1;rounded=0;labelBackgroundColor=none;fontSize=17;entryX=0;entryY=0.25;entryDx=0;entryDy=0;exitX=1;exitY=0.5;exitDx=0;exitDy=0;edgeStyle=orthogonalEdgeStyle;" parent="1" source="wKHjVHF_zIsnPyPIIuAp-82" target="wKHjVHF_zIsnPyPIIuAp-77" edge="1">
          <mxGeometry width="50" height="50" relative="1" as="geometry">
            <mxPoint x="280" y="810" as="sourcePoint" />
            <mxPoint x="270" y="780" as="targetPoint" />
          </mxGeometry>
        </mxCell>
        <mxCell id="wKHjVHF_zIsnPyPIIuAp-80" value="" style="endArrow=classic;html=1;rounded=0;labelBackgroundColor=none;fontSize=17;entryX=0.5;entryY=1;entryDx=0;entryDy=0;exitX=0.5;exitY=0;exitDx=0;exitDy=0;edgeStyle=orthogonalEdgeStyle;dashed=1;dashPattern=1 1;" parent="1" source="wKHjVHF_zIsnPyPIIuAp-84" target="wKHjVHF_zIsnPyPIIuAp-77" edge="1">
          <mxGeometry width="50" height="50" relative="1" as="geometry">
            <mxPoint x="280" y="850" as="sourcePoint" />
            <mxPoint x="320.0000000000001" y="850" as="targetPoint" />
          </mxGeometry>
        </mxCell>
        <mxCell id="wKHjVHF_zIsnPyPIIuAp-82" value="$$[\theta_{3_{inicial}},r_{4_{inicial}}]&lt;br&gt;$$" style="text;html=1;strokeColor=#6c8ebf;fillColor=#dae8fc;align=center;verticalAlign=middle;whiteSpace=wrap;rounded=0;fontSize=17;" parent="1" vertex="1">
          <mxGeometry x="130" y="790" width="140" height="30" as="geometry" />
        </mxCell>
        <mxCell id="wKHjVHF_zIsnPyPIIuAp-84" value="$$ \theta_2,r_2,r_3,\theta_4 $$" style="text;html=1;strokeColor=#b85450;fillColor=#f8cecc;align=center;verticalAlign=middle;whiteSpace=wrap;rounded=0;fontSize=17;" parent="1" vertex="1">
          <mxGeometry x="360" y="900" width="140" height="30" as="geometry" />
        </mxCell>
        <mxCell id="wKHjVHF_zIsnPyPIIuAp-85" value="$$[r_2\cos(\theta_{2})-r_3\cos(\theta_{3_{inicial}&lt;br style=&quot;font-size: 14px;&quot;&gt;})-r_{4_{inicial}}\cos(\theta_{4}),&lt;br&gt;\\r_2\sin(\theta_{2})-r_3\sin(\theta_{3_{inicial}})-r_{4_{inicial}}\sin(\theta_{4})]$$" style="text;html=1;strokeColor=#82b366;fillColor=#d5e8d4;align=center;verticalAlign=middle;whiteSpace=wrap;rounded=0;fontSize=14;" parent="1" vertex="1">
          <mxGeometry x="550" y="810" width="600" height="40" as="geometry" />
        </mxCell>
        <mxCell id="wKHjVHF_zIsnPyPIIuAp-89" style="edgeStyle=orthogonalEdgeStyle;rounded=0;orthogonalLoop=1;jettySize=auto;html=1;exitX=0;exitY=0.5;exitDx=0;exitDy=0;exitPerimeter=0;labelBackgroundColor=none;fontSize=14;fontColor=#FF0000;startArrow=none;startFill=0;endArrow=block;endFill=1;" parent="1" edge="1">
          <mxGeometry relative="1" as="geometry">
            <mxPoint x="200" y="790" as="sourcePoint" />
            <mxPoint x="200" y="790" as="targetPoint" />
          </mxGeometry>
        </mxCell>
        <mxCell id="wKHjVHF_zIsnPyPIIuAp-90" value="&lt;font color=&quot;#0000ff&quot;&gt;x0&lt;/font&gt;: Numpy Array (lista de nÃºmeros)" style="text;html=1;strokeColor=none;fillColor=none;align=center;verticalAlign=middle;whiteSpace=wrap;rounded=0;dashed=1;fontSize=14;fontColor=#000000;" parent="1" vertex="1">
          <mxGeometry x="75" y="760" width="250" height="30" as="geometry" />
        </mxCell>
        <mxCell id="wKHjVHF_zIsnPyPIIuAp-91" value="&lt;font color=&quot;#ff0000&quot;&gt;p&lt;/font&gt;: Diccionario (nÃºmeros con identificador)" style="text;html=1;strokeColor=none;fillColor=none;align=center;verticalAlign=middle;whiteSpace=wrap;rounded=0;dashed=1;fontSize=14;fontColor=#000000;" parent="1" vertex="1">
          <mxGeometry x="285" y="940" width="285" height="30" as="geometry" />
        </mxCell>
        <mxCell id="wKHjVHF_zIsnPyPIIuAp-92" value="Numpy Array (lista de nÃºmeros)" style="text;html=1;strokeColor=none;fillColor=none;align=center;verticalAlign=middle;whiteSpace=wrap;rounded=0;dashed=1;fontSize=14;fontColor=#000000;" parent="1" vertex="1">
          <mxGeometry x="610" y="760" width="250" height="30" as="geometry" />
        </mxCell>
        <mxCell id="wKHjVHF_zIsnPyPIIuAp-93" style="edgeStyle=orthogonalEdgeStyle;rounded=0;orthogonalLoop=1;jettySize=auto;html=1;exitX=1;exitY=0.5;exitDx=0;exitDy=0;entryX=0;entryY=0.5;entryDx=0;entryDy=0;labelBackgroundColor=none;fontSize=17;startArrow=none;startFill=0;endArrow=block;endFill=1;" parent="1" source="wKHjVHF_zIsnPyPIIuAp-94" target="wKHjVHF_zIsnPyPIIuAp-99" edge="1">
          <mxGeometry relative="1" as="geometry" />
        </mxCell>
        <mxCell id="wKHjVHF_zIsnPyPIIuAp-94" value="&lt;i&gt;nombre_funcion (&lt;font color=&quot;#0000ff&quot;&gt;x0&lt;/font&gt;)&lt;/i&gt;" style="rounded=0;whiteSpace=wrap;html=1;fontSize=17;" parent="1" vertex="1">
          <mxGeometry x="340" y="1050" width="180" height="80" as="geometry" />
        </mxCell>
        <mxCell id="wKHjVHF_zIsnPyPIIuAp-95" value="" style="endArrow=classic;html=1;rounded=0;labelBackgroundColor=none;fontSize=17;entryX=0;entryY=0.25;entryDx=0;entryDy=0;exitX=1;exitY=0.5;exitDx=0;exitDy=0;edgeStyle=orthogonalEdgeStyle;" parent="1" source="wKHjVHF_zIsnPyPIIuAp-97" target="wKHjVHF_zIsnPyPIIuAp-94" edge="1">
          <mxGeometry width="50" height="50" relative="1" as="geometry">
            <mxPoint x="280" y="1070" as="sourcePoint" />
            <mxPoint x="270" y="1040" as="targetPoint" />
          </mxGeometry>
        </mxCell>
        <mxCell id="wKHjVHF_zIsnPyPIIuAp-96" value="" style="endArrow=classic;html=1;rounded=0;labelBackgroundColor=none;fontSize=17;exitX=0.5;exitY=0;exitDx=0;exitDy=0;edgeStyle=orthogonalEdgeStyle;dashed=1;dashPattern=12 12;" parent="1" source="wKHjVHF_zIsnPyPIIuAp-98" target="wKHjVHF_zIsnPyPIIuAp-94" edge="1">
          <mxGeometry width="50" height="50" relative="1" as="geometry">
            <mxPoint x="280" y="1110" as="sourcePoint" />
            <mxPoint x="320.0000000000001" y="1110" as="targetPoint" />
          </mxGeometry>
        </mxCell>
        <mxCell id="wKHjVHF_zIsnPyPIIuAp-97" value="[valores iniciales de las incÃ³gnitas]" style="text;html=1;strokeColor=#6c8ebf;fillColor=#dae8fc;align=center;verticalAlign=middle;whiteSpace=wrap;rounded=0;fontSize=17;fontColor=#0000FF;" parent="1" vertex="1">
          <mxGeometry x="120" y="1050" width="150" height="40" as="geometry" />
        </mxCell>
        <mxCell id="IfjNRrb8JnnKBcEKN5_O-2" value="" style="edgeStyle=orthogonalEdgeStyle;rounded=0;orthogonalLoop=1;jettySize=auto;html=1;dashed=1;dashPattern=1 1;" edge="1" parent="1" source="wKHjVHF_zIsnPyPIIuAp-98" target="wKHjVHF_zIsnPyPIIuAp-94">
          <mxGeometry relative="1" as="geometry" />
        </mxCell>
        <mxCell id="wKHjVHF_zIsnPyPIIuAp-98" value="Variables de entrada y parÃ¡metros" style="text;html=1;strokeColor=#b85450;fillColor=#f8cecc;align=center;verticalAlign=middle;whiteSpace=wrap;rounded=0;fontSize=17;fontColor=#FF0000;" parent="1" vertex="1">
          <mxGeometry x="270" y="1169" width="320" height="40" as="geometry" />
        </mxCell>
        <mxCell id="wKHjVHF_zIsnPyPIIuAp-99" value="[evaluaciÃ³n de las ecuaciones usando los &lt;font color=&quot;#0000ff&quot;&gt;valores iniciales &lt;/font&gt;y&amp;nbsp;&lt;font color=&quot;#ff0000&quot;&gt;parÃ¡metros dados&lt;/font&gt;]" style="text;html=1;strokeColor=#82b366;fillColor=#d5e8d4;align=center;verticalAlign=middle;whiteSpace=wrap;rounded=0;fontSize=14;" parent="1" vertex="1">
          <mxGeometry x="560" y="1050" width="360" height="80" as="geometry" />
        </mxCell>
        <mxCell id="wKHjVHF_zIsnPyPIIuAp-100" style="edgeStyle=orthogonalEdgeStyle;rounded=0;orthogonalLoop=1;jettySize=auto;html=1;exitX=0;exitY=0.5;exitDx=0;exitDy=0;exitPerimeter=0;labelBackgroundColor=none;fontSize=14;fontColor=#FF0000;startArrow=none;startFill=0;endArrow=block;endFill=1;" parent="1" edge="1">
          <mxGeometry relative="1" as="geometry">
            <mxPoint x="200" y="1050" as="sourcePoint" />
            <mxPoint x="200" y="1050" as="targetPoint" />
          </mxGeometry>
        </mxCell>
        <mxCell id="wKHjVHF_zIsnPyPIIuAp-101" value="&lt;font color=&quot;#0000ff&quot;&gt;x0&lt;/font&gt;: Numpy Array (lista de nÃºmeros)" style="text;html=1;strokeColor=none;fillColor=none;align=center;verticalAlign=middle;whiteSpace=wrap;rounded=0;dashed=1;fontSize=14;fontColor=#000000;" parent="1" vertex="1">
          <mxGeometry x="75" y="1020" width="250" height="30" as="geometry" />
        </mxCell>
        <mxCell id="wKHjVHF_zIsnPyPIIuAp-103" value="Numpy Array (lista de nÃºmeros)" style="text;html=1;strokeColor=none;fillColor=none;align=center;verticalAlign=middle;whiteSpace=wrap;rounded=0;dashed=1;fontSize=14;fontColor=#000000;" parent="1" vertex="1">
          <mxGeometry x="610" y="1020" width="250" height="30" as="geometry" />
        </mxCell>
      </root>
    </mxGraphModel>
  </diagram>
</mxfile>
